<svg width="94" height="92" viewBox="0 0 94 92" fill="none" xmlns="http://www.w3.org/2000/svg">
<rect width="93.3333" height="91.6667" rx="20" fill="#34E27B"/>
<mask id="mask0_87_2185" style="mask-type:alpha" maskUnits="userSpaceOnUse" x="27" y="26" width="40" height="40">
<rect x="27" y="26" width="40" height="40" fill="#D9D9D9"/>
</mask>
<g mask="url(#mask0_87_2185)">
<path d="M52.8333 59.2082L45.75 52.1248L48.0833 49.7915L52.8333 54.5415L62.25 45.1248L64.5833 47.4582L52.8333 59.2082ZM62 42.6665H58.6667V34.3332H55.3333V39.3332H38.6667V34.3332H35.3333V57.6665H45.3333V60.9998H35.3333C34.4167 60.9998 33.6319 60.6734 32.9792 60.0207C32.3264 59.3679 32 58.5832 32 57.6665V34.3332C32 33.4165 32.3264 32.6318 32.9792 31.979C33.6319 31.3262 34.4167 30.9998 35.3333 30.9998H42.2917C42.5972 30.0276 43.1944 29.229 44.0833 28.604C44.9722 27.979 45.9444 27.6665 47 27.6665C48.1111 27.6665 49.1042 27.979 49.9792 28.604C50.8542 29.229 51.4444 30.0276 51.75 30.9998H58.6667C59.5833 30.9998 60.3681 31.3262 61.0208 31.979C61.6736 32.6318 62 33.4165 62 34.3332V42.6665ZM47 34.3332C47.4722 34.3332 47.8681 34.1734 48.1875 33.854C48.5069 33.5346 48.6667 33.1387 48.6667 32.6665C48.6667 32.1943 48.5069 31.7984 48.1875 31.479C47.8681 31.1596 47.4722 30.9998 47 30.9998C46.5278 30.9998 46.1319 31.1596 45.8125 31.479C45.4931 31.7984 45.3333 32.1943 45.3333 32.6665C45.3333 33.1387 45.4931 33.5346 45.8125 33.854C46.1319 34.1734 46.5278 34.3332 47 34.3332Z" fill="#00533D"/>
</g>
</svg>
