<svg width="94" height="92" viewBox="0 0 94 92" fill="none" xmlns="http://www.w3.org/2000/svg">
<rect width="93.3333" height="91.6667" rx="20" fill="#34E27B"/>
<mask id="mask0_88_2230" style="mask-type:alpha" maskUnits="userSpaceOnUse" x="27" y="26" width="40" height="40">
<rect x="27" y="26" width="40" height="40" fill="#D9D9D9"/>
</mask>
<g mask="url(#mask0_88_2230)">
<path d="M37.0001 64.3334C36.0834 64.3334 35.2987 64.007 34.6459 63.3543C33.9931 62.7015 33.6667 61.9167 33.6667 61.0001V31.0001C33.6667 30.0834 33.9931 29.2987 34.6459 28.6459C35.2987 27.9931 36.0834 27.6667 37.0001 27.6667H53.6667C54.5834 27.6667 55.3681 27.9931 56.0209 28.6459C56.6737 29.2987 57.0001 30.0834 57.0001 31.0001V37.6667H53.6667V36.0001H37.0001V56.0001H53.6667V54.3334H57.0001V61.0001C57.0001 61.9167 56.6737 62.7015 56.0209 63.3543C55.3681 64.007 54.5834 64.3334 53.6667 64.3334H37.0001ZM37.0001 59.3334V61.0001H53.6667V59.3334H37.0001ZM51.9167 52.6667L44.8334 45.5834L47.1667 43.2501L51.9167 48.0001L61.3334 38.5834L63.6667 40.9167L51.9167 52.6667ZM37.0001 32.6667H53.6667V31.0001H37.0001V32.6667Z" fill="#00533D"/>
</g>
</svg>
