<svg width="94" height="92" viewBox="0 0 94 92" fill="none" xmlns="http://www.w3.org/2000/svg">
<rect width="93.3333" height="91.6667" rx="20" fill="#34E27B"/>
<path d="M44.3333 28.4583C44.8611 28.1528 45.4167 28 46 28C46.5833 28 47.1389 28.1528 47.6667 28.4583L59.3333 35.1667C59.8611 35.4722 60.2708 35.875 60.5625 36.375C60.8542 36.875 61 37.4306 61 38.0417V45.125C60.5 44.7639 59.9722 44.4514 59.4167 44.1875C58.8611 43.9236 58.2778 43.6944 57.6667 43.5V39.8333L51.6667 43.2917C50.1111 43.6806 48.7014 44.3403 47.4375 45.2708C46.1736 46.2014 45.1389 47.3333 44.3333 48.6667V45.625L34.3333 39.8333V51.25L42.75 56.125C42.8611 57.0139 43.0694 57.8681 43.375 58.6875C43.6806 59.5069 44.0694 60.2778 44.5417 61C44.4861 60.9722 44.4514 60.9514 44.4375 60.9375C44.4236 60.9236 44.3889 60.9028 44.3333 60.875L32.6667 54.1667C32.1389 53.8611 31.7292 53.4583 31.4375 52.9583C31.1458 52.4583 31 51.9028 31 51.2917V38.0417C31 37.4306 31.1458 36.875 31.4375 36.375C31.7292 35.875 32.1389 35.4722 32.6667 35.1667L44.3333 28.4583ZM46 31.3333L36.125 37.0417L46 42.75L55.875 37.0417L46 31.3333ZM54.3333 63C52.0278 63 50.0625 62.1875 48.4375 60.5625C46.8125 58.9375 46 56.9722 46 54.6667C46 52.3611 46.8125 50.3958 48.4375 48.7708C50.0625 47.1458 52.0278 46.3333 54.3333 46.3333C56.6389 46.3333 58.6042 47.1458 60.2292 48.7708C61.8542 50.3958 62.6667 52.3611 62.6667 54.6667C62.6667 56.9722 61.8542 58.9375 60.2292 60.5625C58.6042 62.1875 56.6389 63 54.3333 63ZM55.1667 54.3333V49.6667H53.5V55L57.0833 58.5833L58.25 57.4167L55.1667 54.3333Z" fill="#00533D"/>
</svg>
