<svg width="94" height="92" viewBox="0 0 94 92" fill="none" xmlns="http://www.w3.org/2000/svg">
<rect width="93.3333" height="91.6667" rx="20" fill="#34E27B"/>
<path d="M29 59.6667V55C29 54.0556 29.2431 53.1875 29.7292 52.3958C30.2153 51.6042 30.8611 51 31.6667 50.5833C33.3889 49.7222 35.1389 49.0764 36.9167 48.6458C38.6944 48.2153 40.5 48 42.3333 48C44.1667 48 45.9722 48.2153 47.75 48.6458C49.5278 49.0764 51.2778 49.7222 53 50.5833C53.8056 51 54.4514 51.6042 54.9375 52.3958C55.4236 53.1875 55.6667 54.0556 55.6667 55V59.6667H29ZM59 59.6667V54.6667C59 53.4444 58.6597 52.2708 57.9792 51.1458C57.2986 50.0208 56.3333 49.0556 55.0833 48.25C56.5 48.4167 57.8333 48.7014 59.0833 49.1042C60.3333 49.5069 61.5 50 62.5833 50.5833C63.5833 51.1389 64.3472 51.7569 64.875 52.4375C65.4028 53.1181 65.6667 53.8611 65.6667 54.6667V59.6667H59ZM42.3333 46.3333C40.5 46.3333 38.9306 45.6806 37.625 44.375C36.3194 43.0694 35.6667 41.5 35.6667 39.6667C35.6667 37.8333 36.3194 36.2639 37.625 34.9583C38.9306 33.6528 40.5 33 42.3333 33C44.1667 33 45.7361 33.6528 47.0417 34.9583C48.3472 36.2639 49 37.8333 49 39.6667C49 41.5 48.3472 43.0694 47.0417 44.375C45.7361 45.6806 44.1667 46.3333 42.3333 46.3333ZM59 39.6667C59 41.5 58.3472 43.0694 57.0417 44.375C55.7361 45.6806 54.1667 46.3333 52.3333 46.3333C52.0278 46.3333 51.6389 46.2986 51.1667 46.2292C50.6944 46.1597 50.3056 46.0833 50 46C50.75 45.1111 51.3264 44.125 51.7292 43.0417C52.1319 41.9583 52.3333 40.8333 52.3333 39.6667C52.3333 38.5 52.1319 37.375 51.7292 36.2917C51.3264 35.2083 50.75 34.2222 50 33.3333C50.3889 33.1944 50.7778 33.1042 51.1667 33.0625C51.5556 33.0208 51.9444 33 52.3333 33C54.1667 33 55.7361 33.6528 57.0417 34.9583C58.3472 36.2639 59 37.8333 59 39.6667ZM32.3333 56.3333H52.3333V55C52.3333 54.6944 52.2569 54.4167 52.1042 54.1667C51.9514 53.9167 51.75 53.7222 51.5 53.5833C50 52.8333 48.4861 52.2708 46.9583 51.8958C45.4306 51.5208 43.8889 51.3333 42.3333 51.3333C40.7778 51.3333 39.2361 51.5208 37.7083 51.8958C36.1806 52.2708 34.6667 52.8333 33.1667 53.5833C32.9167 53.7222 32.7153 53.9167 32.5625 54.1667C32.4097 54.4167 32.3333 54.6944 32.3333 55V56.3333ZM42.3333 43C43.25 43 44.0347 42.6736 44.6875 42.0208C45.3403 41.3681 45.6667 40.5833 45.6667 39.6667C45.6667 38.75 45.3403 37.9653 44.6875 37.3125C44.0347 36.6597 43.25 36.3333 42.3333 36.3333C41.4167 36.3333 40.6319 36.6597 39.9792 37.3125C39.3264 37.9653 39 38.75 39 39.6667C39 40.5833 39.3264 41.3681 39.9792 42.0208C40.6319 42.6736 41.4167 43 42.3333 43Z" fill="#00533D"/>
</svg>
