<svg width="94" height="92" viewBox="0 0 94 92" fill="none" xmlns="http://www.w3.org/2000/svg">
<rect width="93.3333" height="91.6667" rx="20" fill="#34E27B"/>
<mask id="mask0_87_2115" style="mask-type:alpha" maskUnits="userSpaceOnUse" x="27" y="26" width="40" height="40">
<rect x="27" y="26" width="40" height="40" fill="#130F26"/>
</mask>
<g mask="url(#mask0_87_2115)">
<path d="M39.3333 62.6667L36.9999 60.3333L48.4999 48.7917L54.3333 54.625L62.9583 46L65.3333 48.375L54.3333 59.3333L48.4999 53.5L39.3333 62.6667ZM33.6666 61C32.7499 61 31.9652 60.6736 31.3124 60.0208C30.6596 59.3681 30.3333 58.5833 30.3333 57.6667V34.3333C30.3333 33.4167 30.6596 32.6319 31.3124 31.9792C31.9652 31.3264 32.7499 31 33.6666 31H56.9999C57.9166 31 58.7013 31.3264 59.3541 31.9792C60.0069 32.6319 60.3333 33.4167 60.3333 34.3333V41.3333H33.6666V61ZM33.6666 38H56.9999V34.3333H33.6666V38Z" fill="#130F26"/>
</g>
</svg>
