<svg width="94" height="92" viewBox="0 0 94 92" fill="none" xmlns="http://www.w3.org/2000/svg">
<rect width="93.3333" height="91.6667" rx="20" fill="#34E27B"/>
<mask id="mask0_99_740" style="mask-type:alpha" maskUnits="userSpaceOnUse" x="27" y="26" width="40" height="40">
<rect x="27" y="26" width="40" height="40" fill="#D9D9D9"/>
</mask>
<g mask="url(#mask0_99_740)">
<path d="M37.0001 59.3334C35.6112 59.3334 34.4306 58.8473 33.4584 57.8751C32.4862 56.9029 32.0001 55.7223 32.0001 54.3334H28.6667V36.0001C28.6667 35.0834 28.9931 34.2987 29.6459 33.6459C30.2987 32.9931 31.0834 32.6667 32.0001 32.6667H55.3334V39.3334H60.3334L65.3334 46.0001V54.3334H62.0001C62.0001 55.7223 61.514 56.9029 60.5417 57.8751C59.5695 58.8473 58.389 59.3334 57.0001 59.3334C55.6112 59.3334 54.4306 58.8473 53.4584 57.8751C52.4862 56.9029 52.0001 55.7223 52.0001 54.3334H42.0001C42.0001 55.7223 41.514 56.9029 40.5417 57.8751C39.5695 58.8473 38.389 59.3334 37.0001 59.3334ZM37.0001 56.0001C37.4723 56.0001 37.8681 55.8404 38.1876 55.5209C38.507 55.2015 38.6667 54.8056 38.6667 54.3334C38.6667 53.8612 38.507 53.4654 38.1876 53.1459C37.8681 52.8265 37.4723 52.6667 37.0001 52.6667C36.5279 52.6667 36.132 52.8265 35.8126 53.1459C35.4931 53.4654 35.3334 53.8612 35.3334 54.3334C35.3334 54.8056 35.4931 55.2015 35.8126 55.5209C36.132 55.8404 36.5279 56.0001 37.0001 56.0001ZM32.0001 51.0001H33.3334C33.8056 50.5001 34.3473 50.0973 34.9584 49.7917C35.5695 49.4862 36.2501 49.3334 37.0001 49.3334C37.7501 49.3334 38.4306 49.4862 39.0417 49.7917C39.6529 50.0973 40.1945 50.5001 40.6667 51.0001H52.0001V36.0001H32.0001V51.0001ZM57.0001 56.0001C57.4723 56.0001 57.8681 55.8404 58.1876 55.5209C58.507 55.2015 58.6667 54.8056 58.6667 54.3334C58.6667 53.8612 58.507 53.4654 58.1876 53.1459C57.8681 52.8265 57.4723 52.6667 57.0001 52.6667C56.5279 52.6667 56.132 52.8265 55.8126 53.1459C55.4931 53.4654 55.3334 53.8612 55.3334 54.3334C55.3334 54.8056 55.4931 55.2015 55.8126 55.5209C56.132 55.8404 56.5279 56.0001 57.0001 56.0001ZM55.3334 47.6667H62.4167L58.6667 42.6667H55.3334V47.6667Z" fill="#00533D"/>
</g>
</svg>
