<svg width="94" height="92" viewBox="0 0 94 92" fill="none" xmlns="http://www.w3.org/2000/svg">
<rect width="93.3333" height="91.6667" rx="20" fill="#34E27B"/>
<path d="M36.4167 54.1667C37.8333 53.0833 39.4167 52.2292 41.1667 51.6042C42.9167 50.9792 44.75 50.6667 46.6667 50.6667C48.5833 50.6667 50.4167 50.9792 52.1667 51.6042C53.9167 52.2292 55.5 53.0833 56.9167 54.1667C57.8889 53.0278 58.6458 51.7361 59.1875 50.2917C59.7292 48.8472 60 47.3056 60 45.6667C60 41.9722 58.7014 38.8264 56.1042 36.2292C53.5069 33.6319 50.3611 32.3333 46.6667 32.3333C42.9722 32.3333 39.8264 33.6319 37.2292 36.2292C34.6319 38.8264 33.3333 41.9722 33.3333 45.6667C33.3333 47.3056 33.6042 48.8472 34.1458 50.2917C34.6875 51.7361 35.4444 53.0278 36.4167 54.1667ZM46.6667 47.3333C45.0278 47.3333 43.6458 46.7708 42.5208 45.6458C41.3958 44.5208 40.8333 43.1389 40.8333 41.5C40.8333 39.8611 41.3958 38.4792 42.5208 37.3542C43.6458 36.2292 45.0278 35.6667 46.6667 35.6667C48.3056 35.6667 49.6875 36.2292 50.8125 37.3542C51.9375 38.4792 52.5 39.8611 52.5 41.5C52.5 43.1389 51.9375 44.5208 50.8125 45.6458C49.6875 46.7708 48.3056 47.3333 46.6667 47.3333ZM46.6667 62.3333C44.3611 62.3333 42.1944 61.8958 40.1667 61.0208C38.1389 60.1458 36.375 58.9583 34.875 57.4583C33.375 55.9583 32.1875 54.1944 31.3125 52.1667C30.4375 50.1389 30 47.9722 30 45.6667C30 43.3611 30.4375 41.1944 31.3125 39.1667C32.1875 37.1389 33.375 35.375 34.875 33.875C36.375 32.375 38.1389 31.1875 40.1667 30.3125C42.1944 29.4375 44.3611 29 46.6667 29C48.9722 29 51.1389 29.4375 53.1667 30.3125C55.1944 31.1875 56.9583 32.375 58.4583 33.875C59.9583 35.375 61.1458 37.1389 62.0208 39.1667C62.8958 41.1944 63.3333 43.3611 63.3333 45.6667C63.3333 47.9722 62.8958 50.1389 62.0208 52.1667C61.1458 54.1944 59.9583 55.9583 58.4583 57.4583C56.9583 58.9583 55.1944 60.1458 53.1667 61.0208C51.1389 61.8958 48.9722 62.3333 46.6667 62.3333ZM46.6667 59C48.1389 59 49.5278 58.7847 50.8333 58.3542C52.1389 57.9236 53.3333 57.3056 54.4167 56.5C53.3333 55.6944 52.1389 55.0764 50.8333 54.6458C49.5278 54.2153 48.1389 54 46.6667 54C45.1944 54 43.8056 54.2153 42.5 54.6458C41.1944 55.0764 40 55.6944 38.9167 56.5C40 57.3056 41.1944 57.9236 42.5 58.3542C43.8056 58.7847 45.1944 59 46.6667 59ZM46.6667 44C47.3889 44 47.9861 43.7639 48.4583 43.2917C48.9306 42.8194 49.1667 42.2222 49.1667 41.5C49.1667 40.7778 48.9306 40.1806 48.4583 39.7083C47.9861 39.2361 47.3889 39 46.6667 39C45.9444 39 45.3472 39.2361 44.875 39.7083C44.4028 40.1806 44.1667 40.7778 44.1667 41.5C44.1667 42.2222 44.4028 42.8194 44.875 43.2917C45.3472 43.7639 45.9444 44 46.6667 44Z" fill="#00533D"/>
</svg>
